<?xml version="1.0" encoding="utf-8"?>
<!-- Generator: Adobe Illustrator 25.4.1, SVG Export Plug-In . SVG Version: 6.00 Build 0)  -->
<svg version="1.1" id="Layer_1" xmlns="http://www.w3.org/2000/svg" xmlns:xlink="http://www.w3.org/1999/xlink" x="0px" y="0px"
	 viewBox="0 0 111 82" style="enable-background:new 0 0 111 82;" xml:space="preserve">
<style type="text/css">
	.st0{fill:#FFFFFF;}
</style>
<g>
	<path class="st0" d="M83.8,30.8c13-0.8,25.1,8.5,27.1,21c2.3,13.7-6.1,26.9-19,30c-13.1,3.2-26.2-4-30.6-16.9
		C53.2,40.7,63.2,14,85,1.2c3.1-1.8,5.7-2,7.9,0.9c2.4,3.1,0.6,5.3-1.7,7.8c-4.1,4.5-8.4,9-11.6,14.1C75.8,30.3,76.7,31.2,83.8,30.8
		z"/>
	<path class="st0" d="M18.6,31.2c2.7-0.2,4.3-0.2,5.9-0.4c13.5-1.1,25.7,7.8,27.9,20.4c2.5,14.4-5.6,27.1-19.4,30.5
		C20.2,84.9,7.3,77.3,2.8,64.3C-5.4,40,5.9,14.4,25.5,2.2c1.8-1.2,4.3-2,6.4-1.9c1.3,0.1,3.5,2.4,3.4,3.6c0,2-1.2,4.3-2.5,6
		c-3.8,5-7.9,9.7-11.7,14.6C20,26,19.7,28.1,18.6,31.2z"/>
</g>
</svg>
